<?xml version="1.0" standalone="no"?>
<!DOCTYPE svg PUBLIC "-//W3C//DTD SVG 20010904//EN"
 "http://www.w3.org/TR/2001/REC-SVG-20010904/DTD/svg10.dtd">
<svg version="1.0" xmlns="http://www.w3.org/2000/svg"
 width="512.000000pt" height="512.000000pt" viewBox="0 0 512.000000 512.000000"
 preserveAspectRatio="xMidYMid meet">

<g transform="translate(0.000000,512.000000) scale(0.100000,-0.100000)"
fill="#000000" stroke="none">
<path d="M160 4480 l0 -160 80 0 80 0 0 160 0 160 -80 0 -80 0 0 -160z"/>
<path d="M2880 4400 l0 -80 -160 0 -160 0 0 -80 0 -80 -80 0 -80 0 0 -1600 0
-1600 160 0 160 0 0 80 0 80 160 0 160 0 0 80 0 80 640 0 640 0 0 -80 0 -80
160 0 160 0 0 -80 0 -80 160 0 160 0 0 1600 0 1600 -80 0 -80 0 0 80 0 80
-160 0 -160 0 0 80 0 80 -800 0 -800 0 0 -80z m1280 -480 l0 -80 240 0 240 0
0 -480 0 -480 -80 0 -80 0 0 80 0 80 -320 0 -320 0 0 480 0 480 160 0 160 0 0
-80z m0 -1280 l0 -80 240 0 240 0 0 -480 0 -480 -80 0 -80 0 0 80 0 80 -320 0
-320 0 0 480 0 480 160 0 160 0 0 -80z"/>
<path d="M480 4160 l0 -160 80 0 80 0 0 160 0 160 -80 0 -80 0 0 -160z"/>
<path d="M960 4080 l0 -80 -80 0 -80 0 0 -160 0 -160 80 0 80 0 0 80 0 80 80
0 80 0 0 160 0 160 -80 0 -80 0 0 -80z"/>
<path d="M2080 4080 l0 -80 -160 0 -160 0 0 -240 0 -240 80 0 80 0 0 80 0 80
160 0 160 0 0 240 0 240 -80 0 -80 0 0 -80z"/>
<path d="M160 3840 l0 -160 80 0 80 0 0 160 0 160 -80 0 -80 0 0 -160z"/>
<path d="M1440 3920 l0 -80 -80 0 -80 0 0 -160 0 -160 80 0 80 0 0 80 0 80 80
0 80 0 0 160 0 160 -80 0 -80 0 0 -80z"/>
<path d="M480 3520 l0 -160 80 0 80 0 0 160 0 160 -80 0 -80 0 0 -160z"/>
<path d="M960 3440 l0 -80 -80 0 -80 0 0 -160 0 -160 80 0 80 0 0 80 0 80 80
0 80 0 0 160 0 160 -80 0 -80 0 0 -80z"/>
<path d="M2080 3440 l0 -80 -160 0 -160 0 0 -240 0 -240 80 0 80 0 0 80 0 80
160 0 160 0 0 240 0 240 -80 0 -80 0 0 -80z"/>
<path d="M160 3200 l0 -160 80 0 80 0 0 160 0 160 -80 0 -80 0 0 -160z"/>
<path d="M1440 3280 l0 -80 -80 0 -80 0 0 -160 0 -160 80 0 80 0 0 80 0 80 80
0 80 0 0 160 0 160 -80 0 -80 0 0 -80z"/>
<path d="M480 2880 l0 -160 80 0 80 0 0 160 0 160 -80 0 -80 0 0 -160z"/>
<path d="M960 2800 l0 -80 -80 0 -80 0 0 -160 0 -160 80 0 80 0 0 80 0 80 80
0 80 0 0 160 0 160 -80 0 -80 0 0 -80z"/>
<path d="M2080 2800 l0 -80 -160 0 -160 0 0 -240 0 -240 80 0 80 0 0 80 0 80
160 0 160 0 0 240 0 240 -80 0 -80 0 0 -80z"/>
<path d="M160 2560 l0 -160 80 0 80 0 0 160 0 160 -80 0 -80 0 0 -160z"/>
<path d="M1440 2640 l0 -80 -80 0 -80 0 0 -160 0 -160 80 0 80 0 0 80 0 80 80
0 80 0 0 160 0 160 -80 0 -80 0 0 -80z"/>
<path d="M480 2240 l0 -160 80 0 80 0 0 160 0 160 -80 0 -80 0 0 -160z"/>
<path d="M960 2160 l0 -80 -80 0 -80 0 0 -160 0 -160 80 0 80 0 0 80 0 80 80
0 80 0 0 160 0 160 -80 0 -80 0 0 -80z"/>
<path d="M2080 2160 l0 -80 -160 0 -160 0 0 -240 0 -240 80 0 80 0 0 80 0 80
160 0 160 0 0 240 0 240 -80 0 -80 0 0 -80z"/>
<path d="M160 1920 l0 -160 80 0 80 0 0 160 0 160 -80 0 -80 0 0 -160z"/>
<path d="M1440 2000 l0 -80 -80 0 -80 0 0 -160 0 -160 80 0 80 0 0 80 0 80 80
0 80 0 0 160 0 160 -80 0 -80 0 0 -80z"/>
<path d="M480 1600 l0 -160 80 0 80 0 0 160 0 160 -80 0 -80 0 0 -160z"/>
<path d="M960 1520 l0 -80 -80 0 -80 0 0 -160 0 -160 80 0 80 0 0 80 0 80 80
0 80 0 0 160 0 160 -80 0 -80 0 0 -80z"/>
<path d="M2080 1520 l0 -80 -160 0 -160 0 0 -240 0 -240 80 0 80 0 0 80 0 80
160 0 160 0 0 240 0 240 -80 0 -80 0 0 -80z"/>
<path d="M1440 1360 l0 -80 -80 0 -80 0 0 -160 0 -160 80 0 80 0 0 80 0 80 80
0 80 0 0 160 0 160 -80 0 -80 0 0 -80z"/>
</g>
</svg>
